<?xml version="1.0" encoding="iso-8859-1"?>
<!-- Uploaded to: SVG Repo, www.svgrepo.com, Generator: SVG Repo Mixer Tools -->
<!DOCTYPE svg PUBLIC "-//W3C//DTD SVG 1.1//EN" "http://www.w3.org/Graphics/SVG/1.1/DTD/svg11.dtd">
<svg fill="#000000" version="1.1" id="Capa_1" xmlns="http://www.w3.org/2000/svg" xmlns:xlink="http://www.w3.org/1999/xlink" 
	 width="800px" height="800px" viewBox="0 0 600.889 600.888"
	 xml:space="preserve">
<g>
	<g>
		<!-- Karte mit Rad (behalten) -->
		<path d="M573.864,323.679l25.6-201.737L409.988,50.046L197.993,151.289L0,67.678l27.935,220.105L2.223,506.009l208.665,39.135
			l200.136-38.125l189.865,43.823L573.864,323.679z M210.855,522.625L26.64,488.076l23.732-199.335L26.803,103.007l171.761,72.543
			L410.987,74.083l164.331,62.361l-23.755,187.142l23.648,198.602l-163.764-37.782L210.855,522.625z"/>
		
		<!-- Clip-Path für Linien (blendet Bereich um Icon aus) -->
		<defs>
			<clipPath id="icon-clip">
				<ellipse cx="300.444" cy="270" rx="75" ry="85"/>
			</clipPath>
			<mask id="line-mask">
				<rect width="600.889" height="600.888" fill="white"/>
				<ellipse cx="300.444" cy="270" rx="75" ry="85" fill="black"/>
			</mask>
		</defs>
		
		<!-- Punkte mit Mittelpunkt verbunden -->
		<!-- 3 LANGE Punkte (weit außen) -->
		<!-- Punkt 1 (links - lang) -->
		<circle cx="110" cy="320" r="26" fill="#000000"/>
		<path d="M 136 320 Q 220 260, 300.444 300" stroke="#000000" stroke-width="24" fill="none" stroke-linecap="round" mask="url(#line-mask)"/>
		
		<!-- Punkt 2 (oben-rechts - lang) -->
		<circle cx="510" cy="150" r="26" fill="#000000"/>
		<path d="M 484 168 Q 380 180, 300.444 300" stroke="#000000" stroke-width="24" fill="none" stroke-linecap="round" mask="url(#line-mask)"/>
		
		<!-- Punkt 3 (unten-links - lang) -->
		<circle cx="130" cy="450" r="26" fill="#000000"/>
		<path d="M 156 442 Q 240 380, 300.444 300" stroke="#000000" stroke-width="24" fill="none" stroke-linecap="round" mask="url(#line-mask)"/>
		
		<!-- 1 MITTLERER Punkt -->
		<!-- Punkt 4 (rechts - mittel) -->
		<circle cx="420" cy="300.444" r="26" fill="#000000"/>
		<path d="M 394 300.444 Q 350 270, 300.444 300" stroke="#000000" stroke-width="24" fill="none" stroke-linecap="round" mask="url(#line-mask)"/>
		
		<!-- 2 KURZE Punkte (näher zur Mitte) -->
		<!-- Punkt 5 (oben-links - kurz) -->
		<circle cx="240" cy="210" r="26" fill="#000000"/>
		<path d="M 266 228 Q 280 240, 300.444 300" stroke="#000000" stroke-width="24" fill="none" stroke-linecap="round" mask="url(#line-mask)"/>
		
		<!-- Punkt 6 (unten-rechts - kurz) -->
		<circle cx="390" cy="430" r="26" fill="#000000"/>
		<path d="M 364 412 Q 320 350, 300.444 300" stroke="#000000" stroke-width="24" fill="none" stroke-linecap="round" mask="url(#line-mask)"/>
		
		<!-- Mittelpunkt - Pin Icon (im Vordergrund) -->
		<g transform="translate(300.444, 270) scale(9)">
			<path d="M0,2.219 C-1.105,2.219 -2,1.324 -2,0.219 C-2,-0.886 -1.105,-1.781 0,-1.781 C1.105,-1.781 2,-0.886 2,0.219 C2,1.324 1.105,2.219 0,2.219 M0,-7 C-3.866,-7 -7,-3.866 -7,0 C-7,3.866 -3.866,10 0,10 C3.866,10 7,3.866 7,0 C7,-3.866 3.866,-7 0,-7" fill="#000000"/>
		</g>
	</g>
</g>
</svg>

